# xmcd
#
# Track frame offsets:
#	150
#	13479
#	26220
#	40152
#	53578
#	69378
#	83793
#	96979
#	116777
#	136890
#	153212
#	166799
#	183488
#	187624
#
# Disc length: 2691 seconds
# Revision: 0
# Processed by: cddbd v1.5.2PL0 Copyright (c) Steve Scherf et al.
# Submitted via: dBpowerAMP V12.0
#
DISCID=b00a810e
DTITLE=Kriztina Åhs and Countryfied - Roads
DYEAR=2008
DGENRE=Country
TTITLE0=A Different Road
TTITLE1=Wonderful Heartache
TTITLE2=Lots Of Love
TTITLE3=Where's The Door
TTITLE4=Driving Me Crazy
TTITLE5=Eddy's Song (Everybody Needs Someone)
TTITLE6=I Keep Walking The Road That Leads Me Back To You
TTITLE7=Music
TTITLE8=Gloryville
TTITLE9=I Used To Feel
TTITLE10=My Kind Of Living
TTITLE11=Roads
TTITLE12=Bonus track: Kriztina's First Country Song
TTITLE13=Bonus track: Eddy's Song - singback vesion
EXTD=
EXTT0=
EXTT1=
EXTT2=
EXTT3=
EXTT4=
EXTT5=
EXTT6=
EXTT7=
EXTT8=
EXTT9=
EXTT10=
EXTT11=
EXTT12=
EXTT13=
PLAYORDER=
